# xmcd
#
# Track frame offsets: 
#        150
#        21330
#        33550
#        57035
#        75060
#        85000
#        102920
#        118325
#        139815
#        157550
#        171315
#        184750
#        200175
#        218635
#        231690
#        246250
#        262305
#        278320
#
# Disc length: 3932 seconds
#
# Revision: 0
# Processed by: cddbd v1.5.2PL0 Copyright (c) Steve Scherf et al.
# Submitted via: ExactAudioCopy v0.99pb4
#
DISCID=f90f5a12
DTITLE=FOUR POTATOES - Dance Music - Tragical Ballads - Comical Songs
DYEAR=2005
DGENRE=Country 
TTITLE0=Old Plank Road - Quincy Dillon's High D
TTITLE1=Eight More Miles To Louisville
TTITLE2=Ashokan Farewell
TTITLE3=Gray Cat On The Tennessee Fram
TTITLE4=You Low Down Dirty Dog
TTITLE5=Angelina Baker
TTITLE6=Maid Behind The Bar - Whiskey Before Breakfast
TTITLE7=Blues Stay Away From Me
TTITLE8=Come Dance 
TTITLE9=Con´me Dance And Sing - La Bastringue
TTITLE10=Irish Washerwoman - Secert Wedding (for Anne and Andy)
TTITLE11=I'll Fly Away
TTITLE12=Little Lisa Jane
TTITLE13=Denis Murphy's - John Ryan's Too Young To Marry - Staten Isla
TTITLE13=nd
TTITLE14=Goodbye Miss Lisa
TTITLE15=John Hardy
TTITLE16=Lament For A Fiddler (for Jaro) Low Tide In My Pokets
TTITLE17=Keep On The Sunny Side
EXTD=
EXTT0=
EXTT1=
EXTT2=
EXTT3=
EXTT4=
EXTT5=
EXTT6=
EXTT7=
EXTT8=
EXTT9=
EXTT10=
EXTT11=
EXTT12=
EXTT13=
EXTT14=
EXTT15=
EXTT16=
EXTT17=
PLAYORDER=
